<svg version="1" xmlns="http://www.w3.org/2000/svg" width="682.667" height="682.667" viewBox="0 0 512.000000 512.000000"><path d="M347.3 1.8c-9 3.2-14.7 8.7-18 17.4-1.5 4.1-2 15.7-2.3 48.8v6.5l-87.7.1c-78.6 0-101.1.4-109.3 1.8-1.4.3-4.3.7-6.5 1-3.5.4-9.1 1.5-16 3-17.5 3.7-38.6 12.6-54 22.7-9.5 6.3-25.4 21.8-31.5 30.8-8.6 12.8-15.9 30.3-18.9 45.1-.6 3-1.3 6.8-1.7 8.5-1.2 5.9-1.6 51.9-.5 57.9 1.6 8.4 5.7 16.2 12.1 22.6 20.7 20.6 54.6 16.1 69.3-9.2 4.2-7 5.7-14.9 6.1-32.3.4-16.6 1.6-23.2 5.8-32.2 9-19.5 28.2-31.4 54.8-33.9 9-.8 175.8-1.2 177.1-.3.6.3 1 11.5 1.1 26.5 0 21.8.3 26.8 1.8 31.7 2.4 7.7 7.6 13.9 14.8 17.4 5 2.4 6.9 2.8 14.7 2.8 11.5 0 15-1.6 28.1-12.6 5.4-4.6 10.1-8.6 10.4-8.9.3-.3 3.2-2.7 6.5-5.5 3.3-2.7 6.2-5.2 6.5-5.5.3-.3 3.2-2.8 6.5-5.5 3.3-2.8 6.5-5.5 7.1-6 .6-.6 4.8-4.2 9.4-8 4.6-3.9 14.9-12.6 22.9-19.4 8-6.8 17.1-14.5 20.1-17 16.5-13.9 20-19 20.5-29.6.6-11-3.1-17.3-16.5-28.5-3.6-3-6.7-5.7-7-6-.3-.3-4.5-3.9-9.5-8-4.9-4.1-9.2-7.7-9.5-8.1-.3-.3-3.6-3.1-7.5-6.4-8-6.6-17.3-14.5-18.9-16-.6-.6-5.1-4.4-10.1-8.5-8.2-6.8-12.9-10.8-15.9-13.5-.6-.6-5.1-4.4-10.1-8.5-4.9-4.1-9.9-8.3-11-9.4-6.9-6.4-23.3-9.3-33.2-5.8zM463.7 231.6c-.1.1-1.6.4-3.4.7-15.9 2.5-29.4 14.4-34.3 30.4-1.5 4.9-2 9.7-2.2 20.5-.2 17.6-1.8 26.1-6.7 36.3-7.3 15-20.6 25.5-38.3 30-3.4 1-7.2 2-8.3 2.3-1.1.4-43.3.8-93.7.9-74.2.3-91.8.1-91.9-.9 0-.7-.1-12.7-.1-26.7s-.5-26.8-1-28.5c-1-3.2-1.6-5.6-1.7-6.8-.1-.3-1.9-3-4.2-5.8-6.1-7.8-12.6-10.5-24.9-10.5-12.1.1-15 1.5-32 16-6.9 5.9-14.7 12.6-17.5 15C86.2 319.2 74.9 328.7 65 337c-6.3 5.2-12.1 10.2-13 11-.9.8-5.6 4.9-10.5 9-24 19.9-25.9 22.5-26 35.1 0 11.4 3.1 16.9 16 27.7 5.5 4.6 11.1 9.3 12.5 10.5 1.4 1.2 5.2 4.4 8.5 7.1 3.3 2.8 6.5 5.5 7.1 6.1.6.5 7.5 6.4 15.4 13s17.8 14.9 22 18.5c4.2 3.6 9.8 8.4 12.6 10.7 2.7 2.3 5.9 5 7.1 6 1.2 1 3 2.5 4 3.3 1 .8 4.7 4 8.3 6.9 9.6 8 13.6 9.5 25 9.6 8.7 0 10-.3 14.9-3 7.1-3.9 11.7-9.6 14-16.9 1.5-5.1 1.9-9.7 1.9-28.1.1-12.1.1-22.8.2-23.7 0-1.7 5-1.8 88.8-1.8 48.8-.1 91-.3 93.7-.5 21.1-1.7 33-3.8 49-8.6 43.2-12.9 73-39.1 87.1-76.5 1.3-3.5 2.6-7.3 2.8-8.6.3-1.3 1-4.3 1.6-6.8 3-12.1 3.7-21.3 3.6-45.5-.1-13.8-.4-25.7-.8-26.5-.3-.8-.8-2.4-1.2-3.5-5.1-14.4-19.3-26.7-33.6-29-4.5-.8-11.9-1.3-12.3-.9z"/></svg>