<svg width="21" height="17" viewBox="0 0 21 17" fill="none" xmlns="http://www.w3.org/2000/svg">
<path d="M2.83594 5.98438C2.83594 3.77344 4.00781 2.61719 6.23438 2.61719H16.75V2.42188C16.75 0.8125 15.9297 0 14.2969 0H2.45312C0.8125 0 0 0.8125 0 2.42188V10.6484C0 12.2578 0.8125 13.0625 2.45312 13.0625H2.83594V5.98438ZM6.35156 16.8281H18.2031C19.8281 16.8281 20.6562 16.0156 20.6562 14.4062V6.10156C20.6562 4.5 19.8281 3.6875 18.2031 3.6875H6.35156C4.71875 3.6875 3.89844 4.49219 3.89844 6.10156V14.4062C3.89844 16.0156 4.71875 16.8281 6.35156 16.8281ZM9.35156 10.1719C8.35156 10.1719 7.53906 9.35938 7.53906 8.35938C7.53906 7.36719 8.35156 6.54688 9.35156 6.54688C10.3438 6.54688 11.1562 7.36719 11.1562 8.35938C11.1562 9.35938 10.3438 10.1719 9.35156 10.1719ZM6.26562 15.5703C5.5625 15.5703 5.15625 15.1719 5.15625 14.4609V13.8203L6.52344 12.5781C7.21094 11.9531 7.61719 11.5234 8.16406 11.5234C8.72656 11.5234 9.17188 11.9688 9.89062 12.5859L10.625 13.2422L13.1797 10.9375C14.0391 10.1641 14.6016 9.64062 15.2812 9.64062C15.9766 9.64062 16.5625 10.1484 17.3984 10.9375L19.3984 12.8359V14.4609C19.3984 15.1719 18.9844 15.5703 18.2891 15.5703H6.26562Z" fill="#4E00F2"/>
</svg>
