<svg width="29" height="26" viewBox="0 0 29 26" fill="none" xmlns="http://www.w3.org/2000/svg">
<path d="M0 11.957C0 13.082 0.914062 13.9961 2.05078 13.9961C3.17578 13.9961 4.07812 13.082 4.07812 11.957V11.2422C4.07812 9.17969 5.4375 7.94922 7.69922 7.94922H16.3477V10.3984C16.3477 11.3359 16.9336 11.9219 17.8477 11.9219C18.2812 11.9219 18.6094 11.7695 18.8789 11.5469L24.1055 7.11719C24.7969 6.53125 24.7852 5.55859 24.1055 4.98438L18.8789 0.554688C18.6094 0.332031 18.2812 0.179688 17.8477 0.179688C16.9336 0.179688 16.3477 0.765625 16.3477 1.70312V3.96484H7.86328C2.96484 3.96484 0 6.49609 0 10.6562V11.957ZM12.293 15.3906C12.293 14.4531 11.7188 13.8672 10.8047 13.8672C10.3711 13.8672 10.0312 14.0195 9.76172 14.2422L4.54688 18.6719C3.85547 19.2578 3.86719 20.2305 4.54688 20.8047L9.76172 25.2344C10.0312 25.457 10.3711 25.6094 10.8047 25.6094C11.7188 25.6094 12.293 25.0234 12.293 24.0859V21.8594H20.7773C25.6758 21.8594 28.6523 19.3281 28.6523 15.1562V13.8672C28.6523 12.7422 27.7266 11.8164 26.6016 11.8164C25.4766 11.8164 24.5625 12.7422 24.5625 13.8672V14.5703C24.5625 16.6445 23.2148 17.8633 20.9531 17.8633H12.293V15.3906Z" fill="#4E00F2"/>
</svg>
