<svg width="24" height="24" viewBox="0 0 24 24" fill="none" xmlns="http://www.w3.org/2000/svg">
<path d="M10.4 18.6548C11.8974 18.6548 13.3026 18.2583 14.5333 17.5669L18.4 21.4103C18.8 21.8068 19.3538 22 19.9077 22C21.1077 22 22 21.0849 22 19.9156C22 19.3767 21.8154 18.848 21.4051 18.4413L17.5692 14.6385C18.3487 13.3777 18.8 11.9034 18.8 10.3274C18.8 5.76207 15.0154 2 10.4 2C5.78462 2 2 5.76207 2 10.3274C2 14.9029 5.78462 18.6548 10.4 18.6548ZM10.4 15.7265C7.39487 15.7265 4.95385 13.3066 4.95385 10.3274C4.95385 7.35841 7.39487 4.92832 10.4 4.92832C13.4051 4.92832 15.8462 7.35841 15.8462 10.3274C15.8462 13.3066 13.4051 15.7265 10.4 15.7265Z" fill="#4E00F2"/>
</svg>
